<svg aria-hidden="true" style="position: absolute; width: 0; height: 0; overflow: hidden;" version="1.1" xmlns="http://www.w3.org/2000/svg" xmlns:xlink="http://www.w3.org/1999/xlink">
<defs>
<symbol id="icon-ac" viewBox="0 0 32 32">
<path d="M15.504 3.2H15.5a6.535 6.535 0 0 0-4.125 1.459l.012-.01a6.388 6.388 0 0 0-2.244 3.648l-.007.042-.115.576a.968.968 0 0 0 .406 1.038l.004.002a1.008 1.008 0 0 0 1.548-.65l.001-.006.118-.571a4.44 4.44 0 0 1 1.725-2.673l.013-.009a4.513 4.513 0 0 1 2.666-.864c1.314 0 2.498.557 3.328 1.448l.003.003a4.385 4.385 0 0 1 1.168 2.965 4.382 4.382 0 0 1-1.318 3.132l-.001.001a4.523 4.523 0 0 1-3.178 1.299H1.001c-.275 0-.524.11-.706.288a.974.974 0 0 0 0 1.392c.182.179.432.29.707.29h14.501a6.539 6.539 0 0 0 4.493-1.928 6.332 6.332 0 0 0 .001-8.943A6.525 6.525 0 0 0 15.512 3.2h-.008zM27 12.061h-.005a5.023 5.023 0 0 0-3.531 1.444l.001-.001a4.872 4.872 0 0 0-1.464 3.48c0 .262.106.512.293.696a1.006 1.006 0 0 0 1.414 0 .97.97 0 0 0 .293-.696c0-.584.176-1.155.506-1.64.33-.486.798-.864 1.346-1.088a2.986 2.986 0 0 1 1.146-.224c.827 0 1.576.33 2.125.865l-.001-.001a2.913 2.913 0 0 1 .642 3.238l.007-.019a2.986 2.986 0 0 1-1.093 1.318l-.011.007a3.034 3.034 0 0 1-1.667.498H.999c-.275 0-.524.11-.706.288a.975.975 0 0 0-.001 1.394c.182.178.431.288.705.288H20.5a2.519 2.519 0 0 1 1.765.725 2.44 2.44 0 0 1 .73 1.742 2.445 2.445 0 0 1-.736 1.739 2.543 2.543 0 0 1-1.774.718 2.539 2.539 0 0 1-1.632-.59l.004.003a2.483 2.483 0 0 1-.859-1.47l-.002-.015-.011-.059a.976.976 0 0 0-.394-.659l-.003-.002a1.008 1.008 0 0 0-1.571.585l-.001.007a.957.957 0 0 0-.001.397l-.001-.006.01.059a4.438 4.438 0 0 0 1.541 2.664 4.545 4.545 0 0 0 2.922 1.056 4.558 4.558 0 0 0 3.191-1.298l-.001.001A4.405 4.405 0 0 0 25 24.369c0-.912-.28-1.757-.758-2.461h2.767c1.374 0 2.619-.55 3.528-1.441l-.001.001A4.888 4.888 0 0 0 32 16.985a4.888 4.888 0 0 0-1.464-3.48 5.025 5.025 0 0 0-3.531-1.443h-.006z"/>
</symbol>
<symbol id="icon-air-conditioner" viewBox="0 0 32 32">
<path stroke-linejoin="round" stroke-linecap="round" stroke-miterlimit="4" stroke-width="2.4" d="M28.571 1.142h-25.142c-1.263 0-2.286 1.024-2.286 2.286v0 11.429c0.001 1.262 1.024 2.285 2.286 2.285h25.142c0 0 0.001 0 0.002 0 1.262 0 2.285-1.023 2.285-2.285v0-11.429c0-0 0-0.001 0-0.002 0-1.262-1.023-2.285-2.285-2.285-0.001 0-0.001 0-0.002 0h0z"></path>
<path stroke-linejoin="round" stroke-linecap="round" stroke-miterlimit="4" stroke-width="2.4" d="M25.142 17.142v-4.571c0-1.262-1.023-2.285-2.285-2.285h-13.715c-1.261 0.001-2.284 1.023-2.285 2.285v4.571M5.714 28.571h0.229c1.767 0 3.2-1.433 3.2-3.2v0-2.514M26.286 28.571h-0.229c-1.767 0-3.2-1.433-3.2-3.2v0-2.514M16 30.858v-8"></path>
</symbol>
<symbol id="icon-freezer" viewBox="0 0 32 32">
<path stroke-linejoin="round" stroke-linecap="round" stroke-miterlimit="4" stroke-width="2.0800" d="M23.4 3h-14.794c-1.104 0-2 0.896-2 2v20.387c0 1.104 0.896 2 2 2h14.794c1.104 0 2-0.896 2-2v-20.387c0-1.104-0.896-2-2-2z"></path>
<path stroke-linejoin="round" stroke-linecap="round" stroke-miterlimit="4" stroke-width="2.0800" d="M6.608 13.126h18.784M10.314 10.566v-4.038M10.314 19.442v-4.042M8.426 27.387v0.699c0 0 0 0.001 0 0.002 0 0.502 0.406 0.909 0.907 0.912h1.648c0.504 0 0.912-0.408 0.912-0.912v0-0.701M20.101 27.387v0.699c0 0 0 0.001 0 0.002 0 0.504 0.408 0.912 0.912 0.912 0 0 0 0 0 0h1.654c0.504 0 0.912-0.408 0.912-0.912v0-0.701"></path>
</symbol>
<symbol id="icon-bed" viewBox="0 0 32 32">
<path stroke-linejoin="round" stroke-linecap="round" stroke-miterlimit="4" stroke-width="2.24" d="M3 26v-7c0.006-2.207 1.793-3.994 3.999-4h18.001c2.207 0.006 3.994 1.793 4 3.999v7.001M24 15h-18v-6.501c0.005-1.379 1.122-2.496 2.5-2.499h15c1.379 0.005 2.496 1.122 2.499 2.5v6.5h-2z"></path>
<path stroke-linejoin="round" stroke-linecap="round" stroke-miterlimit="4" stroke-width="2.24" d="M3 26v-0.501c0.003-0.827 0.673-1.497 1.501-1.499h22.999c0.828 0.002 1.499 0.673 1.501 1.501v0.499M7 15v-1c0.004-1.103 0.897-1.996 2-2h5c1.103 0.004 1.996 0.897 2 2v0M16 14v1M16 14c0.003-1.103 0.897-1.997 2-2h5c1.103 0.004 1.996 0.897 2 2v1"></path>
</symbol>
<symbol id="icon-calendar" viewBox="0 0 32 32">
<path stroke-linejoin="round" stroke-linecap="round" stroke-miterlimit="4" stroke-width="2.4" d="M25.333 5.333h-18.666c-1.472 0-2.667 1.195-2.667 2.667v18.667c0 1.472 1.194 2.666 2.667 2.666h18.666c1.472 0 2.667-1.194 2.667-2.666v-18.667c0-1.472-1.194-2.667-2.667-2.667zM21.333 2.667v5.333M10.667 2.667v5.333M4 13.333h24"></path>
</symbol>
<symbol id="icon-container" viewBox="0 0 32 32">
<path stroke-linejoin="round" stroke-linecap="round" stroke-miterlimit="4" stroke-width="2.4" d="M22.667 14.667h2c1.105 0 2-0.895 2-2s-0.895-2-2-2v0h-2v6.666M22.667 22.667v5.333h1.333c1.473 0 2.666-1.194 2.666-2.666s-1.194-2.666-2.666-2.666v0h-1.333zM4 6.667c-0.001 0.019-0.001 0.042-0.001 0.065 0 1.473 1.194 2.667 2.667 2.667s2.667-1.194 2.667-2.667c0-0.023-0-0.046-0.001-0.069l0 0.003c-0.037-1.445-1.216-2.602-2.666-2.602s-2.63 1.157-2.666 2.598l-0 0.003z"></path>
<path stroke-linejoin="round" stroke-linecap="round" stroke-miterlimit="4" stroke-width="2.4" d="M6.667 9.333v4c0 0 0 0.001 0 0.002 0 0.736 0.597 1.333 1.333 1.333h4M12 14.667v9.333c0 0.736 0.597 1.333 1.333 1.333v0h4M12 14.667h5.333"></path>
</symbol>
<symbol id="icon-heart" viewBox="0 0 32 32">
<path stroke-linejoin="round" stroke-linecap="round" stroke-miterlimit="4" stroke-width="3.0667" d="M27.787 6.147c-1.327-1.328-3.161-2.149-5.187-2.149s-3.859 0.821-5.187 2.149l-1.413 1.413-1.413-1.413c-1.327-1.327-3.161-2.148-5.187-2.148-4.051 0-7.335 3.284-7.335 7.335 0 2.026 0.821 3.859 2.148 5.187l11.787 11.787 11.787-11.787c1.328-1.327 2.149-3.161 2.149-5.187s-0.821-3.859-2.149-5.187l-0-0z"></path>
</symbol>
<symbol id="icon-petrol" viewBox="0 0 32 32">
<path d="M26.36 9.64l0.013-0.013-4.96-4.96-1.413 1.413 2.813 2.813c-1.253 0.48-2.147 1.68-2.147 3.107 0 0.438 0.086 0.871 0.254 1.276s0.413 0.772 0.723 1.081c0.625 0.625 1.473 0.976 2.357 0.976 0.48 0 0.92-0.107 1.333-0.28v9.613c0 0.354-0.14 0.693-0.391 0.943s-0.589 0.391-0.943 0.391c-0.354 0-0.693-0.14-0.943-0.391s-0.391-0.589-0.391-0.943v-6c0-0.707-0.281-1.386-0.781-1.886s-1.178-0.781-1.886-0.781h-1.333v-9.333c0-0.707-0.281-1.386-0.781-1.886s-1.178-0.781-1.886-0.781h-8c-0.707 0-1.386 0.281-1.886 0.781s-0.781 1.178-0.781 1.886v21.333h13.333v-10h2v6.667c0 0.884 0.351 1.732 0.976 2.357s1.473 0.976 2.357 0.976c0.438 0 0.871-0.086 1.276-0.254s0.772-0.413 1.081-0.723c0.309-0.309 0.555-0.677 0.723-1.081s0.254-0.838 0.254-1.276v-12.667c0-0.92-0.373-1.76-0.973-2.36zM16 18v7.333h-8v-9.333h8v2zM16 13.333h-8v-6.667h8v6.667zM24 13.333c-0.354 0-0.693-0.14-0.943-0.39s-0.391-0.589-0.391-0.943c0-0.354 0.14-0.693 0.391-0.943s0.589-0.39 0.943-0.39c0.354 0 0.693 0.14 0.943 0.39s0.391 0.589 0.391 0.943c0 0.354-0.14 0.693-0.391 0.943s-0.589 0.39-0.943 0.39z"></path>
</symbol>
<symbol id="icon-cd" viewBox="0 0 32 32">
<path stroke-linejoin="miter" stroke-linecap="butt" stroke-miterlimit="4" stroke-width="2.4" d="M16 28c6.627 0 12-5.373 12-12s-5.373-12-12-12v0c-6.627 0-12 5.373-12 12s5.373 12 12 12v0z"></path>
<path stroke-linejoin="miter" stroke-linecap="round" stroke-miterlimit="4" stroke-width="2.4" d="M8.667 16c0-4.050 3.283-7.333 7.333-7.333v0"></path>
<path stroke-linejoin="miter" stroke-linecap="butt" stroke-miterlimit="4" stroke-width="2.4" d="M16 19.333c1.841 0 3.333-1.492 3.333-3.333s-1.492-3.333-3.333-3.333v0c-1.841 0-3.333 1.492-3.333 3.333s1.492 3.333 3.333 3.333v0z"></path>
</symbol>
<symbol id="icon-hand-painted-plate" viewBox="0 0 32 32">
<path fill="none" stroke="#101828" style="stroke: var(--color1, #101828)" stroke-linejoin="miter" stroke-linecap="butt" stroke-miterlimit="4" stroke-width="2.4" d="M12 6.667h16c0.736 0 1.333 0.597 1.333 1.333v0 17.333c0 0 0 0.001 0 0.002 0 0.736-0.597 1.333-1.333 1.333h-16M12 6.667h-8c-0.736 0-1.333 0.597-1.333 1.333v0 17.333c0 0 0 0.001 0 0.002 0 0.736 0.597 1.333 1.333 1.333h8M12 6.667v20"></path>
<path fill="none" stroke="#101828" style="stroke: var(--color1, #101828)" stroke-linejoin="round" stroke-linecap="round" stroke-miterlimit="4" stroke-width="2.4" d="M7.333 11.333v2.667M24.667 10.667l-8 11.333"></path>
<path d="M8.667 18c0-0.737-0.597-1.334-1.334-1.334s-1.334 0.597-1.334 1.334v0c0 0.737 0.597 1.334 1.334 1.334s1.334-0.597 1.334-1.334v0zM8.667 22c0-0.737-0.597-1.334-1.334-1.334s-1.334 0.597-1.334 1.334v0c0 0.737 0.597 1.334 1.334 1.334s1.334-0.597 1.334-1.334v0z"></path>
</symbol>
<symbol id="icon-water" viewBox="0 0 32 32">
<path stroke-linejoin="miter" stroke-linecap="butt" stroke-miterlimit="10" stroke-width="2.4" d="M25 20c0 5.523-3.477 9-9 9s-9-3.477-9-9c0-5.926 6.451-13.928 8.432-16.243 0.138-0.16 0.342-0.261 0.569-0.261s0.43 0.101 0.568 0.26l0.001 0.001c1.979 2.315 8.43 10.317 8.43 16.243z"></path>
<path stroke-linejoin="round" stroke-linecap="round" stroke-miterlimit="4" stroke-width="2.4" d="M21.501 20.501c0 2.485-2.014 4.499-4.499 4.499-0.001 0-0.001 0-0.002 0h0"></path>
</symbol>
<symbol id="icon-kitchen" viewBox="0 0 32 32">
<path stroke-linejoin="round" stroke-linecap="round" stroke-miterlimit="4" stroke-width="2.4" d="M25.333 20v-16c-6.421 6.125-6.696 11.091-6.666 16h6.666zM25.333 20v8h-1.333v-4M10.667 5.333v22.667M6.667 5.333v4c0 2.209 1.791 4 4 4s4-1.791 4-4v0-4"></path>
</symbol>
<symbol id="icon-line" viewBox="0 0 32 32">
<path d="M6.667 4c-0.019-0.001-0.042-0.001-0.065-0.001-1.473 0-2.667 1.194-2.667 2.667s1.194 2.667 2.667 2.667c0.023 0 0.046-0 0.069-0.001l-0.003 0c1.445-0.037 2.602-1.216 2.602-2.666s-1.157-2.63-2.598-2.666l-0.003-0zM1.333 6.667c0-2.946 2.388-5.334 5.334-5.334s5.334 2.388 5.334 5.334v0c0 2.946-2.388 5.334-5.334 5.334s-5.334-2.388-5.334-5.334v0zM25.333 22.667c-0.019-0-0.042-0.001-0.065-0.001-1.473 0-2.667 1.194-2.667 2.667s1.194 2.667 2.667 2.667c0.023 0 0.046-0 0.069-0.001l-0.003 0c1.445-0.037 2.602-1.216 2.602-2.666s-1.157-2.63-2.599-2.666l-0.003-0zM20 25.333c0-2.946 2.388-5.334 5.334-5.334s5.334 2.388 5.334 5.334v0c0 2.946-2.388 5.334-5.334 5.334s-5.334-2.388-5.334-5.334v0z"></path>
<path d="M13.333 6.667c0-0.736 0.597-1.334 1.334-1.334h8.4c4.13 0 5.619 5.405 1.987 7.429l-15.472 8.805c-0.407 0.224-0.678 0.65-0.678 1.139 0 0.716 0.58 1.296 1.296 1.296 0.023 0 0.046-0.001 0.069-0.002l-0.003 0h7.066c0.737 0 1.334 0.597 1.334 1.334s-0.597 1.334-1.334 1.334v0h-7.064c-4.131 0-5.619-5.405-1.987-7.429l15.472-8.805c0.407-0.224 0.678-0.65 0.678-1.139 0-0.716-0.58-1.296-1.296-1.296-0.024 0-0.047 0.001-0.070 0.002l0.003-0h-8.4c-0 0-0.001 0-0.002 0-0.736 0-1.333-0.597-1.333-1.333v0z"></path>
</symbol>
<symbol id="icon-map-pin" viewBox="0 0 29 32">
<path stroke-linejoin="round" stroke-linecap="round" stroke-miterlimit="4" stroke-width="2.4" d="M26.4 13.333c0 9.334-12 17.334-12 17.334s-12-8-12-17.334c0-6.627 5.373-12 12-12s12 5.373 12 12v0z"></path>
<path stroke-linejoin="round" stroke-linecap="round" stroke-miterlimit="4" stroke-width="2.4" d="M14.4 17.333c2.209 0 4-1.791 4-4s-1.791-4-4-4v0c-2.209 0-4 1.791-4 4s1.791 4 4 4v0z"></path>
</symbol>
<symbol id="icon-mdi_gas" viewBox="0 0 32 32">
<path d="M25.072 13.992c-0.368-0.454-0.816-0.848-1.232-1.24-1.072-0.906-2.288-1.557-3.312-2.509-2.384-2.206-2.912-5.848-1.392-8.643-1.52 0.347-2.848 1.133-3.982 1.995-4.144 3.142-5.776 8.688-3.824 13.448 0.064 0.152 0.128 0.304 0.128 0.499 0 0.333-0.24 0.635-0.56 0.755-0.368 0.152-0.752 0.061-1.056-0.181-0.090-0.070-0.165-0.155-0.222-0.252l-0.002-0.004c-1.808-2.162-2.096-5.259-0.88-7.738-2.67 2.054-4.126 5.531-3.918 8.81 0.096 0.755 0.192 1.512 0.464 2.267 0.224 0.906 0.656 1.813 1.136 2.614 1.728 2.614 4.72 4.488 7.936 4.864 3.422 0.41 7.085-0.179 9.709-2.416 2.928-2.509 3.952-6.528 2.448-9.974l-0.208-0.392c-0.336-0.696-1.232-1.904-1.232-1.904zM20.016 23.512c-0.448 0.362-1.184 0.755-1.76 0.906-1.792 0.605-3.582-0.24-4.638-1.238 1.904-0.422 3.040-1.752 3.376-3.098 0.272-1.21-0.24-2.206-0.448-3.37-0.192-1.12-0.16-2.070 0.272-3.114 0.304 0.574 0.624 1.149 1.008 1.602 1.232 1.512 3.168 2.176 3.584 4.232 0.064 0.211 0.096 0.422 0.096 0.65 0.048 1.238-0.528 2.598-1.488 3.43z"></path>
</symbol>
<symbol id="icon-microwave" viewBox="0 0 32 32">
<path stroke-linejoin="round" stroke-linecap="round" stroke-miterlimit="4" stroke-width="2.24" d="M29.714 5.714h-27.426c-0 0-0.001 0-0.002 0-0.631 0-1.142 0.511-1.142 1.142 0 0.001 0 0.001 0 0.002v-0 18.285c0 0 0 0.001 0 0.002 0 0.631 0.511 1.142 1.142 1.142 0.001 0 0.001 0 0.002 0h27.424c0 0 0.001 0 0.002 0 0.631 0 1.142-0.511 1.142-1.142 0-0.001 0-0.001 0-0.002v0-18.285c0-0.632-0.512-1.144-1.144-1.144v0z"></path>
<path stroke-linejoin="round" stroke-linecap="round" stroke-miterlimit="4" stroke-width="2.24" d="M25.142 11.429h1.144M25.142 16h1.144M19.429 10.286h-12.571c-0 0-0.001 0-0.002 0-0.631 0-1.142 0.511-1.142 1.142 0 0 0 0 0 0v0 9.142c0.001 0.631 0.513 1.142 1.144 1.142h12.571c0.631 0 1.142-0.511 1.142-1.142v-9.142c0-0.631-0.511-1.142-1.142-1.142v0z"></path>
</symbol>
<symbol id="icon-people" viewBox="0 0 32 32">
<path d="M9.067 24.133h-4.4c-0.267 0-0.4-0.133-0.534-0.266-0.133-0.134-0.266-0.4-0.133-0.667 0.8-2.267 2.8-3.6 5.067-3.6 2.8 0 5.066-2.4 5.066-5.2s-2.266-5.467-5.066-5.467-5.067 2.4-5.067 5.334c0 1.333 0.533 2.666 1.333 3.6-1.733 0.933-3.066 2.4-3.866 4.4-0.081 0.288-0.128 0.62-0.128 0.962 0 0.787 0.247 1.517 0.668 2.116l-0.008-0.012c0.667 0.934 1.6 1.467 2.667 1.467h4.4c0.8 0 1.333-0.533 1.333-1.333s-0.533-1.334-1.333-1.334zM6.667 14.267c0-1.467 1.066-2.534 2.4-2.534 1.333 0 2.4 1.2 2.4 2.534 0 1.466-1.067 2.533-2.4 2.533-1.334 0-2.4-1.2-2.4-2.533z"></path>
<path d="M30.533 21.467c-0.914-2.407-2.658-4.325-4.875-5.441l-0.057-0.026c1.2-1.067 1.867-2.667 1.867-4.533 0-3.467-2.667-6.267-5.867-6.267s-5.867 2.8-5.867 6.267c0 1.733 0.667 3.333 1.867 4.533-2.274 1.142-4.019 3.060-4.91 5.399l-0.023 0.069c-0.667 1.2-0.4 2.533 0.266 3.6 0.667 1.066 1.867 1.6 3.067 1.6h11.067c1.2 0 2.4-0.667 3.066-1.6 0.8-1.067 0.934-2.4 0.4-3.6zM18.267 11.6c0-2 1.466-3.6 3.2-3.6 1.733 0 3.2 1.6 3.2 3.6s-1.467 3.6-3.2 3.6c-1.734 0-3.2-1.733-3.2-3.6zM27.867 23.6c-0.134 0.133-0.4 0.533-0.8 0.533h-11.067c-0.533 0-0.8-0.4-0.8-0.533-0.153-0.192-0.246-0.438-0.246-0.706 0-0.18 0.042-0.35 0.116-0.501l-0.003 0.007c1.066-2.8 3.733-4.667 6.533-4.667s5.467 1.867 6.533 4.667c0.134 0.533-0.133 1.067-0.266 1.2z"></path>
</symbol>
<symbol id="icon-shower" viewBox="0 0 32 32">
<path stroke-linejoin="round" stroke-linecap="round" stroke-miterlimit="4" stroke-width="2.56" d="M5.333 5.333l3.334 3.334M18 8.667c-1.187-1.154-2.809-1.865-4.598-1.865-3.645 0-6.6 2.955-6.6 6.6 0 1.788 0.711 3.411 1.866 4.599l-0.002-0.002M20 6.667l-13.333 13.333M18.667 22.667v0.013M13.333 21.333v0.014M17.333 17.333v0.014M21.333 13.333v0.014M14.667 26.667v0.013M22.667 18.667v0.013M26.667 14.667v0.013"></path>
</symbol>
<symbol id="icon-solar-radio" viewBox="0 0 32 32">
<path stroke-linejoin="miter" stroke-linecap="butt" stroke-miterlimit="4" stroke-width="2.0800" d="M2.667 18.667c0-5.029 0-7.544 1.562-9.104 1.563-1.563 4.077-1.563 9.104-1.563h5.334c5.027 0 7.542 0 9.104 1.563 1.562 1.56 1.562 4.075 1.562 9.104 0 5.027 0 7.542-1.562 9.104s-4.077 1.562-9.104 1.562h-5.334c-5.027 0-7.542 0-9.104-1.562s-1.562-4.077-1.562-9.104z"></path>
<path stroke-linejoin="miter" stroke-linecap="butt" stroke-miterlimit="4" stroke-width="2.0800" d="M6.667 14.667c0-1.473 1.193-2.666 2.666-2.667h13.335c1.473 0 2.666 1.194 2.666 2.666s-1.194 2.666-2.666 2.666v0h-13.334c-1.472-0.001-2.665-1.194-2.666-2.665v-0zM12 22.667c0 1.105-0.895 2-2 2s-2-0.895-2-2v0c0-1.105 0.895-2 2-2s2 0.895 2 2v0z"></path>
<path stroke-linejoin="miter" stroke-linecap="round" stroke-miterlimit="4" stroke-width="2.0800" d="M20 15.333v2M17.333 22.667h6.667M8.667 8l11.333-5.333"></path>
</symbol>
<symbol id="icon-star" viewBox="0 0 32 32">
<path stroke-linejoin="miter" stroke-linecap="butt" stroke-miterlimit="4" stroke-width="2.4" d="M12.4 9.394l3.6-6.822 3.6 6.822c0.318 0.604 0.9 1.024 1.57 1.14l7.6 1.316-5.376 5.532c-0.385 0.396-0.622 0.937-0.622 1.533 0 0.11 0.008 0.219 0.024 0.325l-0.001-0.012 1.1 7.636-6.924-3.404c-0.283-0.142-0.617-0.225-0.97-0.225s-0.687 0.083-0.983 0.231l0.013-0.006-6.924 3.404 1.1-7.636c0.014-0.094 0.022-0.202 0.022-0.313 0-0.596-0.237-1.138-0.623-1.534l0.001 0-5.378-5.532 7.6-1.314c0.687-0.122 1.254-0.547 1.566-1.13l0.006-0.012z"></path>
</symbol>
<symbol id="icon-toilet-paper" viewBox="0 0 32 32">
<path d="M24 4c1.939 0 3.269 1.648 4.040 3.312 0.762 1.654 1.224 3.811 1.286 6.147l0.006 0.541v12.667c0 0.001 0 0.002 0 0.003 0 0.735-0.596 1.331-1.331 1.331-0.019 0-0.038-0-0.057-0.001l0.003 0-0.166-0.019-3.781-0.629-3.781 0.629c-0.066 0.012-0.142 0.018-0.22 0.018-0.093 0-0.184-0.010-0.272-0.028l0.009 0.002-0.157-0.042-3.579-1.192-3.579 1.192c-0.126 0.043-0.27 0.068-0.421 0.068-0.68 0-1.241-0.509-1.323-1.167l-0.001-0.006-0.010-0.16v-3.902c-0.709 0.734-1.595 1.237-2.667 1.237-1.939 0-3.269-1.648-4.040-3.312-0.819-1.781-1.293-4.147-1.293-6.688s0.472-4.907 1.293-6.688c0.736-1.59 1.981-3.163 3.779-3.301l0.261-0.011h16zM24 6.667h-12.291c0.12 0.213 0.23 0.429 0.33 0.646 0.821 1.779 1.296 4.144 1.296 6.686v10.816l2.245-0.747c0.126-0.043 0.27-0.068 0.421-0.068s0.295 0.025 0.43 0.071l-0.009-0.003 3.688 1.229 3.672-0.613c0.066-0.012 0.142-0.018 0.219-0.018s0.153 0.007 0.227 0.019l-0.008-0.001 2.448 0.408v-11.093c0-2.245-0.424-4.213-1.050-5.568-0.677-1.472-1.347-1.765-1.618-1.765zM8 6.667c-0.272 0-0.941 0.293-1.616 1.763-0.629 1.357-1.051 3.325-1.051 5.57s0.422 4.213 1.050 5.568c0.677 1.472 1.347 1.765 1.618 1.765 0.272 0 0.939-0.293 1.616-1.763 0.627-1.357 1.051-3.325 1.051-5.57s-0.424-4.213-1.050-5.568c-0.678-1.472-1.347-1.766-1.618-1.766zM8 11.333c0.736 0 1.333 1.194 1.333 2.667 0 1.472-0.597 2.667-1.333 2.667s-1.333-1.194-1.333-2.667c0-1.472 0.597-2.667 1.333-2.667z"></path>
</symbol>
<symbol id="icon-trailer" viewBox="0 0 32 32">
<path d="M20.698 16.166c0 0.218-0.175 0.393-0.393 0.393s-0.393-0.175-0.393-0.393 0.175-0.393 0.393-0.393 0.393 0.175 0.393 0.393zM20.288 13.329v-2.714c0-0.303-0.247-0.55-0.55-0.55h-1.515c-0.303 0-0.678 0.247-0.678 0.55v2.714c0 0.303 0.247 0.55 0.55 0.55h1.638c0.307 0 0.555-0.243 0.555-0.55zM12.386 20.378c-0.567 0-1.024 0.461-1.024 1.024s0.461 1.024 1.024 1.024c0.567 0 1.024-0.461 1.024-1.024s-0.457-1.024-1.024-1.024zM30.605 20.326c0 0.201-0.166 0.367-0.367 0.367h-4.809c-0.243 0.269-0.593 0.444-0.986 0.444h-8.585c0.009 0.098 0.013 0.201 0.013 0.299 0 1.873-1.519 3.392-3.392 3.392s-3.392-1.519-3.392-3.392c0-0.102 0.004-0.201 0.013-0.299h-5.21c-1.387 0-2.509-1.131-2.496-2.517l0.009-0.951c0.051-5.811 4.553-10.496 13.116-10.496h2.394c5.952 0 8.853 3.115 8.853 6.959v5.679c0 0.051-0.004 0.098-0.009 0.149h3.878v-0.495c-0.128-0.081-0.209-0.226-0.209-0.388 0-0.256 0.209-0.461 0.461-0.461 0.256 0 0.461 0.209 0.461 0.461 0 0.111-0.038 0.209-0.107 0.29v0.593c0.201 0.004 0.363 0.166 0.363 0.367zM6.421 13.922c0 0.431 0.35 0.777 0.777 0.777h2.735c0.431 0 0.777-0.35 0.777-0.777v-1.263c0-0.431-0.35-0.777-0.777-0.777h-2.483c-0.431 0-1.033 0.35-1.033 0.777v1.263zM14.579 21.389c0-1.203-0.973-2.176-2.176-2.176s-2.176 0.973-2.176 2.176 0.973 2.176 2.176 2.176 2.176-0.973 2.176-2.176zM15.906 15.949c0-0.154-0.124-0.277-0.277-0.277h-12.945c-0.154 0-0.277 0.124-0.277 0.277v0.030c0 0.154 0.124 0.277 0.277 0.277h12.945c0.154 0 0.277-0.124 0.277-0.277v-0.030zM21.107 9.907c0-0.333-0.269-0.597-0.597-0.597h-2.965c-0.333 0-0.725 0.269-0.725 0.597v9.651c0 0.333 0.393 0.597 0.725 0.597h2.965c0.333 0 0.597-0.269 0.597-0.597v-9.651zM25.22 15.949c0-0.154-0.124-0.277-0.277-0.277h-2.807c-0.154 0-0.277 0.124-0.277 0.277v0.030c0 0.154 0.124 0.277 0.277 0.277h2.807c0.154 0 0.277-0.124 0.277-0.277v-0.030z"></path>
</symbol>
<symbol id="icon-close" viewBox="0 0 32 32">
<path stroke-linejoin="round" stroke-linecap="round" stroke-miterlimit="4" stroke-width="3" d="M24 8l-16 16"></path>
<path stroke-linejoin="round" stroke-linecap="round" stroke-miterlimit="4" stroke-width="3" d="M8 8l16 16"></path>
</symbol>
</defs>
</svg>
