<svg aria-hidden="true" style="position: absolute; width: 0; height: 0; overflow: hidden;" version="1.1" xmlns="http://www.w3.org/2000/svg" xmlns:xlink="http://www.w3.org/1999/xlink">
<defs>
<symbol id="icon-ac" viewBox="0 0 32 32">
<path d="M15.504 3.2c-0.001 0-0.002 0-0.004 0-1.563 0-2.998 0.547-4.125 1.459l0.012-0.010c-1.13 0.914-1.936 2.189-2.244 3.648l-0.007 0.042-0.115 0.576c-0.018 0.069-0.028 0.148-0.028 0.23 0 0.337 0.172 0.634 0.434 0.808l0.004 0.002c0.157 0.105 0.35 0.168 0.558 0.168 0.492 0 0.901-0.352 0.99-0.818l0.001-0.006 0.118-0.571c0.236-1.109 0.863-2.043 1.725-2.673l0.013-0.009c0.739-0.54 1.665-0.864 2.666-0.864 1.314 0 2.498 0.557 3.328 1.448l0.003 0.003c0.749 0.811 1.165 1.867 1.168 2.965-0.002 1.227-0.506 2.336-1.318 3.132l-0.001 0.001c-0.818 0.803-1.94 1.299-3.178 1.299-0.001 0-0.003 0-0.004 0h-14.497c-0.001 0-0.001 0-0.002 0-0.275 0-0.524 0.11-0.706 0.288l0-0c-0.18 0.177-0.292 0.424-0.292 0.696s0.112 0.519 0.292 0.696l0 0c0.181 0.179 0.431 0.289 0.706 0.29h14.501c1.759-0.042 3.341-0.771 4.493-1.928l0-0c1.141-1.146 1.847-2.726 1.85-4.472v-0c-0.002-1.745-0.707-3.324-1.847-4.471l0 0c-1.152-1.158-2.733-1.888-4.485-1.929l-0.008-0zM27 12.061c-0.002 0-0.004 0-0.005 0-1.375 0-2.622 0.551-3.531 1.444l0.001-0.001c-0.902 0.886-1.462 2.117-1.464 3.48v0c0 0.262 0.106 0.512 0.293 0.698 0.182 0.179 0.432 0.29 0.707 0.29s0.525-0.111 0.707-0.29l-0 0c0.181-0.177 0.293-0.424 0.293-0.697 0-0 0-0 0-0.001v0c0-0.584 0.176-1.155 0.506-1.64 0.33-0.486 0.798-0.864 1.346-1.088 0.339-0.142 0.733-0.224 1.146-0.224 0.827 0 1.576 0.33 2.125 0.865l-0.001-0.001c0.543 0.529 0.879 1.268 0.879 2.085 0 0.41-0.085 0.799-0.237 1.153l0.007-0.019c-0.236 0.55-0.616 1.001-1.093 1.318l-0.011 0.007c-0.494 0.325-1.074 0.498-1.667 0.498h-26c-0.001 0-0.001 0-0.002 0-0.275 0-0.524 0.11-0.706 0.288l0-0c-0.181 0.177-0.293 0.424-0.293 0.697s0.112 0.52 0.292 0.697l0 0c0.182 0.178 0.431 0.288 0.705 0.288 0.001 0 0.001 0 0.002 0h19.501c0.662 0.002 1.298 0.262 1.765 0.725 0.469 0.464 0.731 1.088 0.73 1.742-0.002 0.653-0.266 1.278-0.736 1.739-0.459 0.444-1.084 0.718-1.774 0.718-0.621 0-1.189-0.221-1.632-0.59l0.004 0.003c-0.443-0.369-0.754-0.884-0.859-1.47l-0.002-0.015-0.011-0.059c-0.038-0.273-0.184-0.507-0.394-0.659l-0.003-0.002c-0.164-0.119-0.369-0.191-0.59-0.191-0.477 0-0.876 0.331-0.981 0.776l-0.001 0.007c-0.013 0.060-0.021 0.129-0.021 0.199 0 0.068 0.007 0.134 0.020 0.198l-0.001-0.006 0.010 0.059c0.178 1.040 0.723 1.984 1.541 2.664 0.786 0.657 1.807 1.056 2.922 1.056 1.241 0 2.367-0.495 3.191-1.298l-0.001 0.001c0.845-0.832 1.322-1.958 1.323-3.136 0-0.912-0.28-1.757-0.758-2.461h2.758c0.003 0 0.006 0 0.009 0 1.374 0 2.619-0.55 3.528-1.441l-0.001 0.001c0.938-0.925 1.464-2.176 1.464-3.483 0-1.306-0.528-2.557-1.464-3.48-0.909-0.892-2.155-1.443-3.531-1.443-0.002 0-0.004 0-0.006 0h0z"></path>
<path d="M15.504 3.2l0.198-7.997-0.102-0.003h-0.096l0.002 8zM9.136 8.339l-7.84-1.595-0.002 0.014 7.842 1.581zM9.021 8.915l7.779 1.864 0.032-0.141 0.030-0.142-7.842-1.581zM10.979 9.299l-7.835-1.611-0.030 0.149-0.024 0.147 7.89 1.318zM11.098 8.728l-7.834-1.614 7.835 1.614zM20 9.598h8v-0.021l-8 0.022zM15.499 14.030v8h0.005l-0.003-8zM0 15.016v0zM15.501 16v8h0.096l0.096-0.003-0.192-7.997zM24 16.984v0zM0 20.923v0zM20.501 21.907l0.016-8h-0.016v8zM20.49 26.83l0.016-8h-0.021l0.005 8zM17.997 24.76l-7.888 1.334 0.002 0.013 0.003 0.014 7.883-1.362zM17.986 24.701l-7.925 1.090 0.016 0.123 0.021 0.122 7.888-1.336zM16.014 25.022l7.888-1.334-0.021-0.12-0.024-0.118-7.843 1.573zM16.024 25.082l-7.888 1.336 0.003 0.013 7.885-1.349zM20.49 28.8l0.003-8h-0.005l0.002 8zM25 24.368l8 0.016v-0.016h-8zM24.242 21.907v-8h-15.114l8.499 12.499 6.614-4.499zM15.504-4.8c-0.001 0-0.001 0-0.002 0-3.473 0-6.662 1.216-9.164 3.245l0.027-0.021 10.048 12.451c-0.245 0.201-0.562 0.324-0.907 0.325h-0l-0.002-16zM6.363-1.576c-2.545 2.062-4.36 4.938-5.051 8.226l-0.016 0.094 15.68 3.19c-0.080 0.392-0.291 0.72-0.565 0.941l-10.048-12.451zM1.294 6.758l-0.117 0.574 15.686 3.163 0.115-0.574-15.683-3.163zM1.24 7.050c-0.157 0.627-0.247 1.347-0.247 2.089 0 0.544 0.048 1.076 0.141 1.593l-0.008-0.054 15.763-2.739c0.165 0.944 0.133 1.91-0.090 2.842l-15.56-3.73zM1.126 10.677c0.226 1.272 0.689 2.405 1.346 3.4l-0.021-0.034 13.402-8.741c0.497 0.752 0.86 1.639 1.030 2.593l0.006 0.043-15.763 2.739zM2.451 14.043c0.671 1.019 1.51 1.869 2.487 2.532l0.031 0.020 8.922-13.283c0.785 0.532 1.439 1.195 1.945 1.963l0.016 0.026-13.402 8.742zM4.97 16.595c0.936 0.637 2.037 1.11 3.224 1.35l0.058 0.010 3.093-15.698c0.966 0.194 1.822 0.562 2.573 1.072l-0.024-0.016-8.922 13.28zM8.251 17.955c1.168 0.23 2.373 0.227 3.541-0.011l-3.192-15.678c0.418-0.089 0.899-0.14 1.391-0.14 0.478 0 0.945 0.048 1.396 0.14l-0.045-0.008-3.091 15.698zM11.792 17.944c1.242-0.258 2.341-0.738 3.304-1.401l-0.030 0.020-9.008-13.224c0.724-0.499 1.577-0.872 2.497-1.064l0.045-0.008 3.192 15.675zM15.066 16.563c1.003-0.689 1.837-1.544 2.481-2.535l0.021-0.035-13.459-8.653c0.519-0.799 1.169-1.465 1.927-1.986l0.024-0.015 9.008 13.224zM17.568 13.994c0.629-0.965 1.085-2.102 1.295-3.323l0.008-0.053-15.781-2.634c0.17-0.997 0.527-1.886 1.036-2.667l-0.017 0.027 13.459 8.651zM18.816 10.914l0.118-0.573-15.672-3.227-0.118 0.573 15.672 3.227zM18.933 10.344c-0.188 0.899-0.691 1.657-1.387 2.169l-0.010 0.007-9.403-12.944c-2.454 1.795-4.209 4.42-4.856 7.455l-0.014 0.081 15.67 3.232zM17.536 12.52c-0.563 0.414-1.269 0.662-2.034 0.662-0.117 0-0.233-0.006-0.347-0.017l0.014 0.001 1.557-15.925c-0.367-0.038-0.793-0.060-1.224-0.060-2.77 0-5.33 0.897-7.405 2.417l0.035-0.025 9.403 12.944zM15.17 13.166c-0.883-0.091-1.656-0.499-2.215-1.108l-0.002-0.002 11.762-10.846c-2.026-2.189-4.811-3.65-7.935-3.964l-0.052-0.004-1.557 15.925zM12.952 12.056c-0.589-0.64-0.951-1.497-0.952-2.438v-0l16-0.040c-0.009-3.234-1.256-6.175-3.292-8.376l0.008 0.008-11.763 10.848zM12 9.6c0-0.987 0.4-1.907 1.069-2.566l11.227 11.398c2.285-2.249 3.702-5.375 3.704-8.832v-0h-16zM13.069 7.034c0.664-0.654 1.539-1.002 2.427-1.002l0.008 16c3.426-0 6.531-1.374 8.794-3.602l-0.002 0.002-11.229-11.4zM15.501 6.032h-14.502v16h14.501v-16zM1 6.032c-0 0-0 0-0 0-2.463 0-4.695 0.988-6.321 2.59l0.001-0.001 11.226 11.4c-1.261 1.243-2.994 2.011-4.905 2.011h-0v-16zM-5.32 8.621c-1.654 1.629-2.679 3.892-2.68 6.395v0h16c-0 1.958-0.801 3.729-2.094 5.002l-0.001 0.001-11.226-11.4zM-8 15.016c0 2.504 1.025 4.768 2.679 6.396l0.001 0.001 11.226-11.402c1.293 1.275 2.094 3.046 2.094 5.004 0 0 0 0.001 0 0.001v-0h-16zM-5.32 21.413c1.625 1.6 3.856 2.587 6.318 2.587 0.001 0 0.001 0 0.002 0h-0v-16c1.912 0 3.644 0.768 4.906 2.012l-0.001-0.001-11.226 11.402zM1 24h14.501v-16h-14.502v16zM15.693 23.997c3.91-0.095 7.424-1.718 9.982-4.292l0.001-0.001-11.363-11.264c0.253-0.261 0.604-0.427 0.993-0.44l0.002-0 0.386 16zM25.675 19.704c2.573-2.59 4.164-6.159 4.168-10.098v-0.001l-16-0.005c0-0.458 0.182-0.87 0.469-1.16l11.363 11.264zM29.843 9.605c-0.001-3.941-1.59-7.51-4.163-10.103l0.001 0.001-11.37 11.258c-0.29-0.297-0.469-0.703-0.469-1.151 0-0.003 0-0.006 0-0.009v0l16 0.005zM25.68-0.498c-2.557-2.577-6.069-4.202-9.961-4.299l-0.018-0-0.397 15.994c-0.39-0.012-0.74-0.177-0.993-0.437l-0-0 11.37-11.258zM26.998 4.062c-0.002 0-0.005 0-0.007 0-3.562 0-6.79 1.428-9.143 3.743l0.002-0.002 11.226 11.402c-0.533 0.529-1.267 0.856-2.076 0.858h-0v-16zM17.85 7.803c-2.376 2.338-3.848 5.587-3.85 9.181v0h16c0 0.858-0.347 1.653-0.923 2.219l-11.226-11.4zM14 16.984c0 2.424 0.979 4.722 2.68 6.397l11.226-11.4c1.293 1.275 2.094 3.045 2.094 5.003v0h-16zM16.68 23.381c1.625 1.601 3.857 2.589 6.32 2.589 0 0 0 0 0 0h-0v-16c1.912 0 3.644 0.768 4.906 2.012l-0.001-0.001-11.226 11.4zM23 25.97c0 0 0 0 0 0 2.463 0 4.695-0.988 6.321-2.59l-0.001 0.001-11.226-11.4c1.261-1.243 2.994-2.011 4.905-2.011h0v16zM29.32 23.381c1.654-1.629 2.68-3.893 2.68-6.397v-0h-16c0-1.958 0.801-3.729 2.094-5.002l0.001-0.001 11.226 11.4zM32 16.984c0 1.027-0.31 2.019-0.875 2.851l-13.237-8.984c-1.181 1.718-1.887 3.843-1.888 6.133v0h16zM31.125 19.835c-0.563 0.832-1.352 1.461-2.251 1.829l-6.043-14.816c-2.045 0.848-3.726 2.226-4.92 3.966l-0.024 0.037 13.238 8.984zM28.874 21.664c-0.553 0.232-1.196 0.366-1.871 0.366-0.338 0-0.668-0.034-0.987-0.098l0.032 0.005 3.075-15.701c-0.638-0.131-1.372-0.206-2.123-0.206-1.503 0-2.936 0.3-4.242 0.844l0.073-0.027 6.043 14.816zM26.048 21.938c-0.999-0.2-1.864-0.675-2.54-1.341l0.001 0.001 11.226-11.402c-1.493-1.47-3.405-2.518-5.541-2.948l-0.070-0.012-3.075 15.702zM23.509 20.597c-0.709-0.698-1.205-1.602-1.408-2.605l15.683-3.168c-0.46-2.222-1.54-4.142-3.048-5.627l-0.001-0.001-11.226 11.402zM22.101 17.992c-0.064-0.303-0.101-0.652-0.101-1.009 0-0.711 0.146-1.389 0.41-2.003l-0.013 0.033 14.749 6.205c0.54-1.25 0.854-2.705 0.854-4.233 0-0.765-0.079-1.511-0.228-2.231l0.012 0.071-15.683 3.168zM22.397 15.013c0.4-0.937 1.044-1.705 1.854-2.244l0.018-0.012 8.795 13.366c1.804-1.198 3.209-2.868 4.054-4.834l0.027-0.071-14.749-6.205zM24.269 12.757c0.769-0.512 1.714-0.818 2.73-0.818 0 0 0.001 0 0.001 0h-0v16c0.001 0 0.001 0 0.002 0 2.256 0 4.355-0.677 6.102-1.84l-0.041 0.025-8.794-13.368zM27 11.939h-26v16h26v-16zM1 11.939c-0.001 0-0.001 0-0.002 0-2.462 0-4.693 0.988-6.319 2.588l0.001-0.001 11.226 11.402c-1.261 1.241-2.993 2.008-4.904 2.008-0.001 0-0.001 0-0.002 0h0v-16zM-5.32 14.526c-1.655 1.629-2.68 3.893-2.68 6.397v0h16c0 0 0 0.001 0 0.001 0 1.958-0.801 3.729-2.094 5.003l-0.001 0.001-11.226-11.402zM-8 20.923c0 2.504 1.025 4.768 2.679 6.396l0.001 0.001 11.226-11.402c1.293 1.275 2.094 3.046 2.094 5.004 0 0 0 0.001 0 0.001v-0h-16zM-5.32 27.32c1.625 1.6 3.856 2.587 6.318 2.587 0.001 0 0.001 0 0.002 0h-0v-16c1.912 0.001 3.645 0.769 4.906 2.014l-0.001-0.001-11.226 11.402zM1 29.907h19.501v-16h-19.502v16zM20.485 29.907c-1.499-0.003-2.856-0.608-3.844-1.586l0 0 11.248-11.379c-1.895-1.872-4.499-3.030-7.373-3.035h-0.001l-0.032 16zM16.642 28.322c-1.018-1.008-1.648-2.405-1.648-3.95 0-0.005 0-0.009 0-0.014v0.001l16 0.032c0-0.006 0-0.012 0-0.019 0-2.906-1.187-5.535-3.103-7.428l-0.001-0.001-11.248 11.379zM14.994 24.358c0.002-1.549 0.639-2.95 1.663-3.956l0.001-0.001 11.203 11.424c1.93-1.891 3.128-4.523 3.134-7.434v-0.001l-16-0.032zM16.658 20.402c0.988-0.971 2.344-1.571 3.841-1.571 0.003 0 0.005 0 0.008 0h-0l-0.032 16c0.008 0 0.017 0 0.026 0 2.867 0 5.466-1.147 7.363-3.007l-0.002 0.002-11.203-11.424zM20.485 18.83c1.258 0 2.494 0.437 3.485 1.259l-10.224 12.309c1.813 1.513 4.169 2.432 6.739 2.432 0.004 0 0.008 0 0.012 0h-0.001l-0.011-16zM23.97 20.090c0.984 0.823 1.673 1.969 1.904 3.274l0.005 0.033-15.765 2.725c0.45 2.54 1.761 4.716 3.615 6.263l0.017 0.014 10.224-12.309zM25.883 23.424l-0.010-0.059-15.776 2.67 0.011 0.059 15.776-2.67zM25.912 23.61c-0.18-1.278-0.604-2.428-1.224-3.444l0.022 0.040-13.709 8.251c-0.468-0.765-0.8-1.665-0.936-2.628l-0.004-0.037 15.851-2.181zM24.71 20.205c-0.637-1.047-1.445-1.924-2.394-2.619l-0.025-0.018-9.405 12.944c-0.759-0.556-1.388-1.24-1.867-2.025l-0.018-0.031 13.709-8.251zM22.291 17.568c-0.915-0.671-1.994-1.182-3.162-1.466l-0.062-0.013-3.678 15.571c-0.955-0.23-1.792-0.627-2.522-1.162l0.020 0.014 9.405-12.944zM19.067 16.090c-0.623-0.154-1.338-0.242-2.073-0.242-0.514 0-1.019 0.043-1.509 0.126l0.053-0.007 2.586 15.789c-0.339 0.058-0.729 0.092-1.127 0.092-0.57 0-1.125-0.068-1.655-0.197l0.048 0.010 3.678-15.57zM15.536 15.966c-1.249 0.209-2.364 0.646-3.351 1.27l0.037-0.022 8.472 13.573c-0.737 0.467-1.603 0.806-2.532 0.962l-0.041 0.006-2.584-15.787zM12.222 17.214c-1.033 0.651-1.896 1.47-2.576 2.428l-0.019 0.028 13.088 9.203c-0.544 0.771-1.232 1.421-2.021 1.914l-8.47-13.573zM9.627 19.67c-0.668 0.939-1.168 2.048-1.429 3.246l-0.011 0.059 15.654 3.312c-0.213 0.984-0.604 1.851-1.141 2.607l0.015-0.022-13.088-9.203zM8.187 22.976c-0.124 0.558-0.194 1.199-0.194 1.857 0 0.624 0.064 1.234 0.185 1.822l-0.010-0.058 15.688-3.147c0.087 0.415 0.137 0.891 0.137 1.38 0 0.516-0.056 1.019-0.161 1.504l0.009-0.046-15.65-3.31zM8.123 26.358l0.011 0.059 15.776-2.672-0.010-0.058-15.776 2.67zM8.138 26.43c0.531 3.020 2.086 5.607 4.288 7.448l0.020 0.016 10.238-12.296c0.632 0.526 1.078 1.278 1.224 2.134l-15.768 2.699zM12.445 33.894c2.162 1.808 4.971 2.906 8.038 2.906 0.003 0 0.006 0 0.009 0h-0l-0.003-16c0.787 0 1.566 0.272 2.197 0.798l-10.238 12.296zM20.486 36.8c0.003 0 0.007 0 0.011 0 3.422 0 6.524-1.37 8.787-3.592l-0.002 0.002-11.213-11.413c0.622-0.614 1.477-0.995 2.42-0.997h0l-0.006 16zM29.283 33.21c2.288-2.246 3.709-5.369 3.717-8.824v-0.002l-16-0.029c0.002-0.984 0.4-1.902 1.069-2.56l11.214 11.414zM33 24.37c0-2.576-0.797-4.981-2.142-6.96l-13.232 8.997c-0.391-0.571-0.625-1.276-0.626-2.037v-0h16zM24.242 29.907h2.758v-16h-2.758v16zM27 29.907c0.002 0 0.005 0 0.007 0 3.562 0 6.79-1.428 9.143-3.743l-0.002 0.002-11.226-11.402c0.533-0.528 1.267-0.856 2.076-0.858h0v16zM36.149 26.166c2.377-2.338 3.85-5.588 3.851-9.182v-0h-16c0-0.856 0.347-1.651 0.923-2.219l11.226 11.402zM40 16.984c0-3.467-1.4-6.768-3.851-9.181l-11.226 11.4c-0.57-0.565-0.923-1.348-0.923-2.213 0-0.002 0-0.004 0-0.006v0h16zM36.149 7.803c-2.352-2.314-5.581-3.742-9.143-3.742-0.002 0-0.004 0-0.006 0h0v16c-0.81-0.002-1.544-0.329-2.077-0.858l0 0 11.226-11.4z"></path>
</symbol>
<symbol id="icon-air-conditioner" viewBox="0 0 32 32">
<path stroke-linejoin="round" stroke-linecap="round" stroke-miterlimit="4" stroke-width="2.4" d="M28.571 1.142h-25.142c-1.263 0-2.286 1.024-2.286 2.286v0 11.429c0.001 1.262 1.024 2.285 2.286 2.285h25.142c0 0 0.001 0 0.002 0 1.262 0 2.285-1.023 2.285-2.285v0-11.429c0-0 0-0.001 0-0.002 0-1.262-1.023-2.285-2.285-2.285-0.001 0-0.001 0-0.002 0h0z"></path>
<path stroke-linejoin="round" stroke-linecap="round" stroke-miterlimit="4" stroke-width="2.4" d="M25.142 17.142v-4.571c0-1.262-1.023-2.285-2.285-2.285h-13.715c-1.261 0.001-2.284 1.023-2.285 2.285v4.571M5.714 28.571h0.229c1.767 0 3.2-1.433 3.2-3.2v0-2.514M26.286 28.571h-0.229c-1.767 0-3.2-1.433-3.2-3.2v0-2.514M16 30.858v-8"></path>
</symbol>
<symbol id="icon-arcticons_freezer" viewBox="0 0 32 32">
<path stroke-linejoin="round" stroke-linecap="round" stroke-miterlimit="4" stroke-width="2.0800" d="M23.4 3h-14.794c-1.104 0-2 0.896-2 2v20.387c0 1.104 0.896 2 2 2h14.794c1.104 0 2-0.896 2-2v-20.387c0-1.104-0.896-2-2-2z"></path>
<path stroke-linejoin="round" stroke-linecap="round" stroke-miterlimit="4" stroke-width="2.0800" d="M6.608 13.126h18.784M10.314 10.566v-4.038M10.314 19.442v-4.042M8.426 27.387v0.699c0 0 0 0.001 0 0.002 0 0.502 0.406 0.909 0.907 0.912h1.648c0.504 0 0.912-0.408 0.912-0.912v0-0.701M20.101 27.387v0.699c0 0 0 0.001 0 0.002 0 0.504 0.408 0.912 0.912 0.912 0 0 0 0 0 0h1.654c0.504 0 0.912-0.408 0.912-0.912v0-0.701"></path>
</symbol>
<symbol id="icon-bed" viewBox="0 0 32 32">
<path stroke-linejoin="round" stroke-linecap="round" stroke-miterlimit="4" stroke-width="2.24" d="M3 26v-7c0.006-2.207 1.793-3.994 3.999-4h18.001c2.207 0.006 3.994 1.793 4 3.999v7.001M24 15h-18v-6.501c0.005-1.379 1.122-2.496 2.5-2.499h15c1.379 0.005 2.496 1.122 2.499 2.5v6.5h-2z"></path>
<path stroke-linejoin="round" stroke-linecap="round" stroke-miterlimit="4" stroke-width="2.24" d="M3 26v-0.501c0.003-0.827 0.673-1.497 1.501-1.499h22.999c0.828 0.002 1.499 0.673 1.501 1.501v0.499M7 15v-1c0.004-1.103 0.897-1.996 2-2h5c1.103 0.004 1.996 0.897 2 2v0M16 14v1M16 14c0.003-1.103 0.897-1.997 2-2h5c1.103 0.004 1.996 0.897 2 2v1"></path>
</symbol>
<symbol id="icon-calendar" viewBox="0 0 32 32">
<path stroke-linejoin="round" stroke-linecap="round" stroke-miterlimit="4" stroke-width="2.4" d="M25.333 5.333h-18.666c-1.472 0-2.667 1.195-2.667 2.667v18.667c0 1.472 1.194 2.666 2.667 2.666h18.666c1.472 0 2.667-1.194 2.667-2.666v-18.667c0-1.472-1.194-2.667-2.667-2.667zM21.333 2.667v5.333M10.667 2.667v5.333M4 13.333h24"></path>
</symbol>
<symbol id="icon-container" viewBox="0 0 32 32">
<path stroke-linejoin="round" stroke-linecap="round" stroke-miterlimit="4" stroke-width="2.4" d="M22.667 14.667h2c1.105 0 2-0.895 2-2s-0.895-2-2-2v0h-2v6.666M22.667 22.667v5.333h1.333c1.473 0 2.666-1.194 2.666-2.666s-1.194-2.666-2.666-2.666v0h-1.333zM4 6.667c-0.001 0.019-0.001 0.042-0.001 0.065 0 1.473 1.194 2.667 2.667 2.667s2.667-1.194 2.667-2.667c0-0.023-0-0.046-0.001-0.069l0 0.003c-0.037-1.445-1.216-2.602-2.666-2.602s-2.63 1.157-2.666 2.598l-0 0.003z"></path>
<path stroke-linejoin="round" stroke-linecap="round" stroke-miterlimit="4" stroke-width="2.4" d="M6.667 9.333v4c0 0 0 0.001 0 0.002 0 0.736 0.597 1.333 1.333 1.333h4M12 14.667v9.333c0 0.736 0.597 1.333 1.333 1.333v0h4M12 14.667h5.333"></path>
</symbol>
<symbol id="icon-heart" viewBox="0 0 32 32">
<path stroke-linejoin="round" stroke-linecap="round" stroke-miterlimit="4" stroke-width="3.0667" d="M27.787 6.147c-1.327-1.328-3.161-2.149-5.187-2.149s-3.859 0.821-5.187 2.149l-1.413 1.413-1.413-1.413c-1.327-1.327-3.161-2.148-5.187-2.148-4.051 0-7.335 3.284-7.335 7.335 0 2.026 0.821 3.859 2.148 5.187l11.787 11.787 11.787-11.787c1.328-1.327 2.149-3.161 2.149-5.187s-0.821-3.859-2.149-5.187l-0-0z"></path>
</symbol>
<symbol id="icon-cd" viewBox="0 0 32 32">
<path stroke-linejoin="miter" stroke-linecap="butt" stroke-miterlimit="4" stroke-width="2.4" d="M16 28c6.627 0 12-5.373 12-12s-5.373-12-12-12v0c-6.627 0-12 5.373-12 12s5.373 12 12 12v0z"></path>
<path stroke-linejoin="miter" stroke-linecap="round" stroke-miterlimit="4" stroke-width="2.4" d="M8.667 16c0-4.050 3.283-7.333 7.333-7.333v0"></path>
<path stroke-linejoin="miter" stroke-linecap="butt" stroke-miterlimit="4" stroke-width="2.4" d="M16 19.333c1.841 0 3.333-1.492 3.333-3.333s-1.492-3.333-3.333-3.333v0c-1.841 0-3.333 1.492-3.333 3.333s1.492 3.333 3.333 3.333v0z"></path>
</symbol>
<symbol id="icon-hand-painted-plate" viewBox="0 0 32 32">
<path fill="none" stroke="#101828" style="stroke: var(--color1, #101828)" stroke-linejoin="miter" stroke-linecap="butt" stroke-miterlimit="4" stroke-width="2.4" d="M12 6.667h16c0.736 0 1.333 0.597 1.333 1.333v0 17.333c0 0 0 0.001 0 0.002 0 0.736-0.597 1.333-1.333 1.333h-16M12 6.667h-8c-0.736 0-1.333 0.597-1.333 1.333v0 17.333c0 0 0 0.001 0 0.002 0 0.736 0.597 1.333 1.333 1.333h8M12 6.667v20"></path>
<path fill="none" stroke="#101828" style="stroke: var(--color1, #101828)" stroke-linejoin="round" stroke-linecap="round" stroke-miterlimit="4" stroke-width="2.4" d="M7.333 11.333v2.667M24.667 10.667l-8 11.333"></path>
<path d="M8.667 18c0-0.737-0.597-1.334-1.334-1.334s-1.334 0.597-1.334 1.334v0c0 0.737 0.597 1.334 1.334 1.334s1.334-0.597 1.334-1.334v0zM8.667 22c0-0.737-0.597-1.334-1.334-1.334s-1.334 0.597-1.334 1.334v0c0 0.737 0.597 1.334 1.334 1.334s1.334-0.597 1.334-1.334v0z"></path>
</symbol>
<symbol id="icon-water" viewBox="0 0 32 32">
<path stroke-linejoin="miter" stroke-linecap="butt" stroke-miterlimit="10" stroke-width="2.4" d="M25 20c0 5.523-3.477 9-9 9s-9-3.477-9-9c0-5.926 6.451-13.928 8.432-16.243 0.138-0.16 0.342-0.261 0.569-0.261s0.43 0.101 0.568 0.26l0.001 0.001c1.979 2.315 8.43 10.317 8.43 16.243z"></path>
<path stroke-linejoin="round" stroke-linecap="round" stroke-miterlimit="4" stroke-width="2.4" d="M21.501 20.501c0 2.485-2.014 4.499-4.499 4.499-0.001 0-0.001 0-0.002 0h0"></path>
</symbol>
<symbol id="icon-kitchen" viewBox="0 0 32 32">
<path stroke-linejoin="round" stroke-linecap="round" stroke-miterlimit="4" stroke-width="2.4" d="M25.333 20v-16c-6.421 6.125-6.696 11.091-6.666 16h6.666zM25.333 20v8h-1.333v-4M10.667 5.333v22.667M6.667 5.333v4c0 2.209 1.791 4 4 4s4-1.791 4-4v0-4"></path>
</symbol>
<symbol id="icon-line" viewBox="0 0 32 32">
<path d="M6.667 4c-0.019-0.001-0.042-0.001-0.065-0.001-1.473 0-2.667 1.194-2.667 2.667s1.194 2.667 2.667 2.667c0.023 0 0.046-0 0.069-0.001l-0.003 0c1.445-0.037 2.602-1.216 2.602-2.666s-1.157-2.63-2.598-2.666l-0.003-0zM1.333 6.667c0-2.946 2.388-5.334 5.334-5.334s5.334 2.388 5.334 5.334v0c0 2.946-2.388 5.334-5.334 5.334s-5.334-2.388-5.334-5.334v0zM25.333 22.667c-0.019-0-0.042-0.001-0.065-0.001-1.473 0-2.667 1.194-2.667 2.667s1.194 2.667 2.667 2.667c0.023 0 0.046-0 0.069-0.001l-0.003 0c1.445-0.037 2.602-1.216 2.602-2.666s-1.157-2.63-2.599-2.666l-0.003-0zM20 25.333c0-2.946 2.388-5.334 5.334-5.334s5.334 2.388 5.334 5.334v0c0 2.946-2.388 5.334-5.334 5.334s-5.334-2.388-5.334-5.334v0z"></path>
<path d="M13.333 6.667c0-0.736 0.597-1.334 1.334-1.334h8.4c4.13 0 5.619 5.405 1.987 7.429l-15.472 8.805c-0.407 0.224-0.678 0.65-0.678 1.139 0 0.716 0.58 1.296 1.296 1.296 0.023 0 0.046-0.001 0.069-0.002l-0.003 0h7.066c0.737 0 1.334 0.597 1.334 1.334s-0.597 1.334-1.334 1.334v0h-7.064c-4.131 0-5.619-5.405-1.987-7.429l15.472-8.805c0.407-0.224 0.678-0.65 0.678-1.139 0-0.716-0.58-1.296-1.296-1.296-0.024 0-0.047 0.001-0.070 0.002l0.003-0h-8.4c-0 0-0.001 0-0.002 0-0.736 0-1.333-0.597-1.333-1.333v0z"></path>
</symbol>
<symbol id="icon-map-pin" viewBox="0 0 29 32">
<path stroke-linejoin="round" stroke-linecap="round" stroke-miterlimit="4" stroke-width="2.4" d="M26.4 13.333c0 9.334-12 17.334-12 17.334s-12-8-12-17.334c0-6.627 5.373-12 12-12s12 5.373 12 12v0z"></path>
<path stroke-linejoin="round" stroke-linecap="round" stroke-miterlimit="4" stroke-width="2.4" d="M14.4 17.333c2.209 0 4-1.791 4-4s-1.791-4-4-4v0c-2.209 0-4 1.791-4 4s1.791 4 4 4v0z"></path>
</symbol>
<symbol id="icon-mdi_gas" viewBox="0 0 32 32">
<path d="M25.072 13.992c-0.368-0.454-0.816-0.848-1.232-1.24-1.072-0.906-2.288-1.557-3.312-2.509-2.384-2.206-2.912-5.848-1.392-8.643-1.52 0.347-2.848 1.133-3.982 1.995-4.144 3.142-5.776 8.688-3.824 13.448 0.064 0.152 0.128 0.304 0.128 0.499 0 0.333-0.24 0.635-0.56 0.755-0.368 0.152-0.752 0.061-1.056-0.181-0.090-0.070-0.165-0.155-0.222-0.252l-0.002-0.004c-1.808-2.162-2.096-5.259-0.88-7.738-2.67 2.054-4.126 5.531-3.918 8.81 0.096 0.755 0.192 1.512 0.464 2.267 0.224 0.906 0.656 1.813 1.136 2.614 1.728 2.614 4.72 4.488 7.936 4.864 3.422 0.41 7.085-0.179 9.709-2.416 2.928-2.509 3.952-6.528 2.448-9.974l-0.208-0.392c-0.336-0.696-1.232-1.904-1.232-1.904zM20.016 23.512c-0.448 0.362-1.184 0.755-1.76 0.906-1.792 0.605-3.582-0.24-4.638-1.238 1.904-0.422 3.040-1.752 3.376-3.098 0.272-1.21-0.24-2.206-0.448-3.37-0.192-1.12-0.16-2.070 0.272-3.114 0.304 0.574 0.624 1.149 1.008 1.602 1.232 1.512 3.168 2.176 3.584 4.232 0.064 0.211 0.096 0.422 0.096 0.65 0.048 1.238-0.528 2.598-1.488 3.43z"></path>
</symbol>
<symbol id="icon-microwave" viewBox="0 0 32 32">
<path stroke-linejoin="round" stroke-linecap="round" stroke-miterlimit="4" stroke-width="2.24" d="M29.714 5.714h-27.426c-0 0-0.001 0-0.002 0-0.631 0-1.142 0.511-1.142 1.142 0 0.001 0 0.001 0 0.002v-0 18.285c0 0 0 0.001 0 0.002 0 0.631 0.511 1.142 1.142 1.142 0.001 0 0.001 0 0.002 0h27.424c0 0 0.001 0 0.002 0 0.631 0 1.142-0.511 1.142-1.142 0-0.001 0-0.001 0-0.002v0-18.285c0-0.632-0.512-1.144-1.144-1.144v0z"></path>
<path stroke-linejoin="round" stroke-linecap="round" stroke-miterlimit="4" stroke-width="2.24" d="M25.142 11.429h1.144M25.142 16h1.144M19.429 10.286h-12.571c-0 0-0.001 0-0.002 0-0.631 0-1.142 0.511-1.142 1.142 0 0 0 0 0 0v0 9.142c0.001 0.631 0.513 1.142 1.144 1.142h12.571c0.631 0 1.142-0.511 1.142-1.142v-9.142c0-0.631-0.511-1.142-1.142-1.142v0z"></path>
</symbol>
<symbol id="icon-people" viewBox="0 0 32 32">
<path d="M9.067 24.133h-4.4c-0.267 0-0.4-0.133-0.534-0.266-0.133-0.134-0.266-0.4-0.133-0.667 0.8-2.267 2.8-3.6 5.067-3.6 2.8 0 5.066-2.4 5.066-5.2s-2.266-5.467-5.066-5.467-5.067 2.4-5.067 5.334c0 1.333 0.533 2.666 1.333 3.6-1.733 0.933-3.066 2.4-3.866 4.4-0.081 0.288-0.128 0.62-0.128 0.962 0 0.787 0.247 1.517 0.668 2.116l-0.008-0.012c0.667 0.934 1.6 1.467 2.667 1.467h4.4c0.8 0 1.333-0.533 1.333-1.333s-0.533-1.334-1.333-1.334zM6.667 14.267c0-1.467 1.066-2.534 2.4-2.534 1.333 0 2.4 1.2 2.4 2.534 0 1.466-1.067 2.533-2.4 2.533-1.334 0-2.4-1.2-2.4-2.533z"></path>
<path d="M30.533 21.467c-0.914-2.407-2.658-4.325-4.875-5.441l-0.057-0.026c1.2-1.067 1.867-2.667 1.867-4.533 0-3.467-2.667-6.267-5.867-6.267s-5.867 2.8-5.867 6.267c0 1.733 0.667 3.333 1.867 4.533-2.274 1.142-4.019 3.060-4.91 5.399l-0.023 0.069c-0.667 1.2-0.4 2.533 0.266 3.6 0.667 1.066 1.867 1.6 3.067 1.6h11.067c1.2 0 2.4-0.667 3.066-1.6 0.8-1.067 0.934-2.4 0.4-3.6zM18.267 11.6c0-2 1.466-3.6 3.2-3.6 1.733 0 3.2 1.6 3.2 3.6s-1.467 3.6-3.2 3.6c-1.734 0-3.2-1.733-3.2-3.6zM27.867 23.6c-0.134 0.133-0.4 0.533-0.8 0.533h-11.067c-0.533 0-0.8-0.4-0.8-0.533-0.153-0.192-0.246-0.438-0.246-0.706 0-0.18 0.042-0.35 0.116-0.501l-0.003 0.007c1.066-2.8 3.733-4.667 6.533-4.667s5.467 1.867 6.533 4.667c0.134 0.533-0.133 1.067-0.266 1.2z"></path>
</symbol>
<symbol id="icon-shower" viewBox="0 0 32 32">
<path stroke-linejoin="round" stroke-linecap="round" stroke-miterlimit="4" stroke-width="2.56" d="M5.333 5.333l3.334 3.334M18 8.667c-1.187-1.154-2.809-1.865-4.598-1.865-3.645 0-6.6 2.955-6.6 6.6 0 1.788 0.711 3.411 1.866 4.599l-0.002-0.002M20 6.667l-13.333 13.333M18.667 22.667v0.013M13.333 21.333v0.014M17.333 17.333v0.014M21.333 13.333v0.014M14.667 26.667v0.013M22.667 18.667v0.013M26.667 14.667v0.013"></path>
</symbol>
<symbol id="icon-solar-radio" viewBox="0 0 32 32">
<path stroke-linejoin="miter" stroke-linecap="butt" stroke-miterlimit="4" stroke-width="2.0800" d="M2.667 18.667c0-5.029 0-7.544 1.562-9.104 1.563-1.563 4.077-1.563 9.104-1.563h5.334c5.027 0 7.542 0 9.104 1.563 1.562 1.56 1.562 4.075 1.562 9.104 0 5.027 0 7.542-1.562 9.104s-4.077 1.562-9.104 1.562h-5.334c-5.027 0-7.542 0-9.104-1.562s-1.562-4.077-1.562-9.104z"></path>
<path stroke-linejoin="miter" stroke-linecap="butt" stroke-miterlimit="4" stroke-width="2.0800" d="M6.667 14.667c0-1.473 1.193-2.666 2.666-2.667h13.335c1.473 0 2.666 1.194 2.666 2.666s-1.194 2.666-2.666 2.666v0h-13.334c-1.472-0.001-2.665-1.194-2.666-2.665v-0zM12 22.667c0 1.105-0.895 2-2 2s-2-0.895-2-2v0c0-1.105 0.895-2 2-2s2 0.895 2 2v0z"></path>
<path stroke-linejoin="miter" stroke-linecap="round" stroke-miterlimit="4" stroke-width="2.0800" d="M20 15.333v2M17.333 22.667h6.667M8.667 8l11.333-5.333"></path>
</symbol>
<symbol id="icon-star" viewBox="0 0 32 32">
<path stroke-linejoin="miter" stroke-linecap="butt" stroke-miterlimit="4" stroke-width="2.4" d="M12.4 9.394l3.6-6.822 3.6 6.822c0.318 0.604 0.9 1.024 1.57 1.14l7.6 1.316-5.376 5.532c-0.385 0.396-0.622 0.937-0.622 1.533 0 0.11 0.008 0.219 0.024 0.325l-0.001-0.012 1.1 7.636-6.924-3.404c-0.283-0.142-0.617-0.225-0.97-0.225s-0.687 0.083-0.983 0.231l0.013-0.006-6.924 3.404 1.1-7.636c0.014-0.094 0.022-0.202 0.022-0.313 0-0.596-0.237-1.138-0.623-1.534l0.001 0-5.378-5.532 7.6-1.314c0.687-0.122 1.254-0.547 1.566-1.13l0.006-0.012z"></path>
</symbol>
<symbol id="icon-toilet-paper" viewBox="0 0 32 32">
<path d="M24 4c1.939 0 3.269 1.648 4.040 3.312 0.762 1.654 1.224 3.811 1.286 6.147l0.006 0.541v12.667c0 0.001 0 0.002 0 0.003 0 0.735-0.596 1.331-1.331 1.331-0.019 0-0.038-0-0.057-0.001l0.003 0-0.166-0.019-3.781-0.629-3.781 0.629c-0.066 0.012-0.142 0.018-0.22 0.018-0.093 0-0.184-0.010-0.272-0.028l0.009 0.002-0.157-0.042-3.579-1.192-3.579 1.192c-0.126 0.043-0.27 0.068-0.421 0.068-0.68 0-1.241-0.509-1.323-1.167l-0.001-0.006-0.010-0.16v-3.902c-0.709 0.734-1.595 1.237-2.667 1.237-1.939 0-3.269-1.648-4.040-3.312-0.819-1.781-1.293-4.147-1.293-6.688s0.472-4.907 1.293-6.688c0.736-1.59 1.981-3.163 3.779-3.301l0.261-0.011h16zM24 6.667h-12.291c0.12 0.213 0.23 0.429 0.33 0.646 0.821 1.779 1.296 4.144 1.296 6.686v10.816l2.245-0.747c0.126-0.043 0.27-0.068 0.421-0.068s0.295 0.025 0.43 0.071l-0.009-0.003 3.688 1.229 3.672-0.613c0.066-0.012 0.142-0.018 0.219-0.018s0.153 0.007 0.227 0.019l-0.008-0.001 2.448 0.408v-11.093c0-2.245-0.424-4.213-1.050-5.568-0.677-1.472-1.347-1.765-1.618-1.765zM8 6.667c-0.272 0-0.941 0.293-1.616 1.763-0.629 1.357-1.051 3.325-1.051 5.57s0.422 4.213 1.050 5.568c0.677 1.472 1.347 1.765 1.618 1.765 0.272 0 0.939-0.293 1.616-1.763 0.627-1.357 1.051-3.325 1.051-5.57s-0.424-4.213-1.050-5.568c-0.678-1.472-1.347-1.766-1.618-1.766zM8 11.333c0.736 0 1.333 1.194 1.333 2.667 0 1.472-0.597 2.667-1.333 2.667s-1.333-1.194-1.333-2.667c0-1.472 0.597-2.667 1.333-2.667z"></path>
</symbol>
<symbol id="icon-trailer" viewBox="0 0 32 32">
<path d="M20.698 16.166c0 0.218-0.175 0.393-0.393 0.393s-0.393-0.175-0.393-0.393 0.175-0.393 0.393-0.393 0.393 0.175 0.393 0.393zM20.288 13.329v-2.714c0-0.303-0.247-0.55-0.55-0.55h-1.515c-0.303 0-0.678 0.247-0.678 0.55v2.714c0 0.303 0.247 0.55 0.55 0.55h1.638c0.307 0 0.555-0.243 0.555-0.55zM12.386 20.378c-0.567 0-1.024 0.461-1.024 1.024s0.461 1.024 1.024 1.024c0.567 0 1.024-0.461 1.024-1.024s-0.457-1.024-1.024-1.024zM30.605 20.326c0 0.201-0.166 0.367-0.367 0.367h-4.809c-0.243 0.269-0.593 0.444-0.986 0.444h-8.585c0.009 0.098 0.013 0.201 0.013 0.299 0 1.873-1.519 3.392-3.392 3.392s-3.392-1.519-3.392-3.392c0-0.102 0.004-0.201 0.013-0.299h-5.21c-1.387 0-2.509-1.131-2.496-2.517l0.009-0.951c0.051-5.811 4.553-10.496 13.116-10.496h2.394c5.952 0 8.853 3.115 8.853 6.959v5.679c0 0.051-0.004 0.098-0.009 0.149h3.878v-0.495c-0.128-0.081-0.209-0.226-0.209-0.388 0-0.256 0.209-0.461 0.461-0.461 0.256 0 0.461 0.209 0.461 0.461 0 0.111-0.038 0.209-0.107 0.29v0.593c0.201 0.004 0.363 0.166 0.363 0.367zM6.421 13.922c0 0.431 0.35 0.777 0.777 0.777h2.735c0.431 0 0.777-0.35 0.777-0.777v-1.263c0-0.431-0.35-0.777-0.777-0.777h-2.483c-0.431 0-1.033 0.35-1.033 0.777v1.263zM14.579 21.389c0-1.203-0.973-2.176-2.176-2.176s-2.176 0.973-2.176 2.176 0.973 2.176 2.176 2.176 2.176-0.973 2.176-2.176zM15.906 15.949c0-0.154-0.124-0.277-0.277-0.277h-12.945c-0.154 0-0.277 0.124-0.277 0.277v0.030c0 0.154 0.124 0.277 0.277 0.277h12.945c0.154 0 0.277-0.124 0.277-0.277v-0.030zM21.107 9.907c0-0.333-0.269-0.597-0.597-0.597h-2.965c-0.333 0-0.725 0.269-0.725 0.597v9.651c0 0.333 0.393 0.597 0.725 0.597h2.965c0.333 0 0.597-0.269 0.597-0.597v-9.651zM25.22 15.949c0-0.154-0.124-0.277-0.277-0.277h-2.807c-0.154 0-0.277 0.124-0.277 0.277v0.030c0 0.154 0.124 0.277 0.277 0.277h2.807c0.154 0 0.277-0.124 0.277-0.277v-0.030z"></path>
</symbol>
</defs>
</svg>
